<svg xmlns="http://www.w3.org/2000/svg" width="220" height="220" fill="none" viewBox="0 0 220 220">
    <path fill="#E6EBF1" fill-rule="evenodd" d="M165.712 52.644l.265.27c8.445 8.623 12.942 13.794 17.011 19.478 12.729 17.951 15.569 35.238 8.691 52.775-3.361 8.48-8.237 16.098-16.197 25.151-4.059 4.605-19.306 19.605-23.975 23.587-9.179 7.808-16.87 12.552-25.391 15.762-17.622 6.566-34.816 3.4-52.486-9.689-5.596-4.184-10.67-8.786-19.115-17.408l-.264-.271c-8.27-8.457-12.72-13.583-16.747-19.206-18.474-26.032-16.245-50.845 7.03-77.411 3.61-4.116 20.253-20.536 24.452-24.103 9.18-7.807 16.87-12.552 25.39-15.762 17.623-6.567 34.816-3.4 52.488 9.69 5.534 4.139 10.565 8.693 18.848 17.137z" clip-rule="evenodd"/>
    <rect width="91.667" height="72.019" fill="#A8C1DB" rx="2" transform="matrix(-1 0 0 1 157.666 73.791)"/>
    <rect width="74.479" height="11.458" x="74.633" y="85.25" fill="#5E6ABA" rx="5"/>
    <rect width="74.479" height="4.297" x="74.633" y="108.167" fill="#5E6ABA" rx="2.148"/>
    <rect width="74.479" height="4.297" x="74.633" y="119.625" fill="#5E6ABA" rx="2.148"/>
    <rect width="74.479" height="4.297" x="74.633" y="131.083" fill="#5E6ABA" rx="2.148"/>
    <rect width="15.755" height="27.572" x="79.644" y="91.695" fill="#2CB3AC" rx="1"/>
    <circle cx="87.523" cy="83.818" r="15.755" fill="#FFC800"/>
    <path fill="#fff" d="M136.986 147.182c-.391.391-1.024.391-1.414 0l-10.808-10.808c-.391-.391-.391-1.024 0-1.414l2.033-2.034c.39-.39 1.023-.39 1.413-.001l7.362 7.341c.39.39 1.023.389 1.413-.001l17.138-17.137c.391-.392 1.026-.391 1.416.002l2.038 2.052c.388.391.387 1.022-.003 1.412l-20.588 20.588z"/>
    <path fill="#2CB3AC" d="M141.167 111.223c-13.493 0-24.444 10.951-24.444 24.444 0 13.493 10.951 24.445 24.444 24.445 13.493 0 24.445-10.952 24.445-24.445s-10.952-24.444-24.445-24.444zm-4.182 35.959c-.39.391-1.023.391-1.414 0l-10.808-10.808c-.39-.39-.39-1.023 0-1.414l2.034-2.033c.39-.391 1.022-.391 1.413-.001l7.361 7.34c.391.39 1.023.39 1.413-.001l17.138-17.137c.391-.392 1.027-.391 1.417.002l2.037 2.052c.388.391.387 1.022-.002 1.412l-20.589 20.588z"/>
</svg>
